<?xml version="1.0" encoding="UTF-8"?>
<svg width="600px" height="600px" viewBox="0 0 600 600" version="1.1" xmlns="http://www.w3.org/2000/svg" xmlns:xlink="http://www.w3.org/1999/xlink">
    <title>assets/icon</title>
    <g id="/assets/icon" stroke="none" stroke-width="1" fill="none" fill-rule="evenodd">
        <g id="icon" transform="translate(-1.000000, 213.000000)" fill="#000000" fill-rule="nonzero">
            <path d="M128.022059,51.6176471 L128.022059,8.35714286 C115.717336,2.45798319 102.428235,0 88.6469451,0 C37.4592967,0 0.0529380761,36.8697479 0.0529380761,87.012605 C-0.931439783,114.542017 11.8654724,140.596639 34.0139742,156.819328 C49.7640197,168.12605 68.9593879,174.516807 88.1547562,174.02521 C101.936046,173.533613 115.225147,171.07563 128.022059,166.159664 L128.022059,121.42437 C117.686092,128.798319 104.88918,132.731092 92.0922676,133.222689 C65.0218765,133.222689 46.8108863,114.05042 46.8108863,87.012605 C46.8108863,59.9747899 65.5140654,40.3109244 93.0766455,40.3109244 C105.873558,40.3109244 117.686092,44.2436975 128.022059,51.6176471 M525.710716,170.584034 L476.491821,170.584034 L514.88256,87.012605 L476.491821,3.44117647 L525.710716,3.44117647 L539.492006,45.7184874 L552.781107,3.44117647 L602,3.44117647 L564.101452,87.012605 L602,170.584034 L552.781107,170.584034 L539.492006,128.306723 L525.710716,170.584034 Z M269.280282,170.584034 L222.522334,170.584034 L219.5692,148.953782 L190.530053,148.953782 L187.57692,170.584034 L140.818972,170.584034 L176.256574,3.44117647 L233.842679,3.44117647 L269.280282,170.584034 Z M214.155122,113.558824 L204.803532,47.1932773 L195.451943,113.558824 L214.155122,113.558824 Z M382.483736,170.584034 L466.155854,170.584034 L466.155854,131.256303 L427.765117,131.256303 L427.765117,105.693277 L462.218342,105.693277 L462.218342,66.3655462 L427.765117,66.3655462 L427.765117,42.7689076 L466.155854,42.7689076 L466.155854,3.44117647 L382.483736,3.44117647 L382.483736,170.584034 Z M363.288367,170.584034 L363.288367,131.256303 L329.81952,131.256303 L329.81952,3.44117647 L284.538139,3.44117647 L284.538139,170.584034 L363.288367,170.584034 Z" id="Shape"></path>
        </g>
    </g>
</svg>